<svg xmlns="http://www.w3.org/2000/svg" viewBox="0 0 28.5 28.39" fill="#12100b" xmlns:v="https://vecta.io/nano"><path d="M.16 3.87C.16 1.92 1.47.14 3.87.14s3.7 1.76 3.7 3.69c0 1.95-1.26 3.76-3.67 3.76C1.5 7.58.16 5.81.16 3.87m5.8 0c0-1.34-.62-2.5-2.06-2.5S1.78 2.49 1.78 3.83c0 1.35.66 2.52 2.09 2.52 1.45 0 2.09-1.14 2.09-2.48M8.91.27h2.36c1.56 0 2.75.72 2.75 2.27 0 1.56-1.13 2.36-2.92 2.36h-.66v2.56H8.91V.27zm2.21 3.47c.96 0 1.37-.39 1.37-1.19 0-.72-.4-1.12-1.34-1.12h-.71v2.31h.68zM15.31.27h4.14v1.25h-2.64v1.62h2.33v1.19h-2.33V6.2h2.72v1.25h-4.22zm5.71 0h1.53l2.59 3.72c.43.62.69 1.09.75 1.21h.02a14.99 14.99 0 0 1-.04-1.13V.27h1.38v7.19h-1.39l-2.79-3.99c-.39-.54-.6-.94-.69-1.08h-.02c.01.1.04.51.04.96v4.11h-1.38V.27zM.56 9.69h2.17c2.83 0 4.11 1.42 4.11 3.5 0 2.07-1.31 3.69-4.16 3.69H.56V9.69zm2.23 5.97c1.62 0 2.44-.83 2.44-2.43 0-1.61-.79-2.32-2.49-2.32h-.66v4.75h.71zm7.47-5.97h1.47l2.82 7.19h-1.66l-.49-1.35H9.52l-.48 1.35H7.51l2.75-7.19zm1.7 4.62l-.62-1.71c-.23-.62-.32-1.08-.39-1.24h-.02l-.38 1.24-.61 1.71h2.02zm5.24-3.36h-1.99V9.69h5.49v1.26h-1.97v5.93H17.2zm6.92-1.26h1.47l2.82 7.19h-1.66l-.49-1.35h-2.87l-.48 1.35h-1.53l2.74-7.19zm1.7 4.62l-.62-1.71c-.23-.62-.32-1.08-.39-1.24h-.01l-.38 1.24-.61 1.71h2.01zM.56 18.82h1.59v3.81h4.69v-3.81h1.59v9.37H6.84v-4.25H2.15v4.25H.56zm10.57 5.79v-5.8h1.59v5.65c0 1.75.68 2.58 2.28 2.58 1.52 0 2.2-.96 2.2-2.42v-5.8h1.48v5.67c0 2.43-1.21 3.87-3.72 3.87-2.65 0-3.83-1.41-3.83-3.75m10.44-5.8h2.83c1.75 0 3.17.61 3.17 2.34 0 1.17-.65 1.84-1.68 2.11v.03c1.14.18 2.07.96 2.07 2.28 0 1.91-1.48 2.62-3.6 2.62h-2.79v-9.38zm2.65 3.93c1.23 0 1.76-.44 1.76-1.38 0-.9-.59-1.3-1.73-1.3h-1.11v2.68h1.08zm.08 4.2c1.36 0 2.04-.42 2.04-1.45 0-.99-.55-1.55-1.96-1.55h-1.25v3h1.17z"/></svg>