<svg xmlns="http://www.w3.org/2000/svg" viewBox="0 0 18.3 18.288">
  <g id="_004-paper-plane" data-name="004-paper-plane" transform="translate(0 -0.16)">
    <path id="Path_33" data-name="Path 33" d="M18.144.313A.528.528,0,0,0,17.563.2L.317,7.761A.534.534,0,0,0,0,8.217.524.524,0,0,0,.267,8.7l6.012,3.41,3.57,6.075a.531.531,0,0,0,.453.261h.031a.528.528,0,0,0,.453-.316L18.257.894A.521.521,0,0,0,18.144.313ZM15.4,2.3,6.576,11.066,1.7,8.3Zm-5.17,14.46L7.325,11.807,16.2,2.989Z" transform="translate(0)"/>
  </g>
</svg>
